<?xml version="1.0" encoding="utf-8"?>
<!-- Generator: Adobe Illustrator 21.0.0, SVG Export Plug-In . SVG Version: 6.00 Build 0)  -->
<svg version="1.1" id="Layer_1" xmlns="http://www.w3.org/2000/svg" xmlns:xlink="http://www.w3.org/1999/xlink" x="0px" y="0px"
	 viewBox="0 0 120 120" style="enable-background:new 0 0 120 120;" xml:space="preserve">
<g>
	<g>
		<path d="M63.5,67c14.9,19.8,37.5,31.9,52.2,51.8c1.1,1.5,3.7,0,2.6-1.5c-14.7-19.9-37.4-32-52.2-51.8C64.9,64,62.3,65.5,63.5,67
			L63.5,67z"/>
	</g>
</g>
<g>
	<g>
		<path d="M65.4,65.7c8.6-12.5,17.1-29.4,8.8-44.3C66.9,8.4,49.7,2.7,35.7,5.1C21.6,7.4,9.7,17.8,4.4,31c-2.7,6.9-3.6,14.6-0.1,21.4
			c3.4,6.6,9.6,12,15.9,15.9C34.8,77,53.5,76.7,66.3,65c1.4-1.3-0.7-3.4-2.1-2.1C50.1,75.7,29.4,73,15.6,61.1
			c-7-6-12-13.6-10.2-23.2c1.6-8,6.2-15.4,12.2-20.8C30.3,5.8,49.5,4.3,63.4,14.1c18.6,13.1,9.8,34.8-0.6,50
			C61.7,65.8,64.3,67.3,65.4,65.7L65.4,65.7z"/>
	</g>
</g>
</svg>
