<?xml version="1.0" encoding="utf-8"?>
<!-- Generator: Adobe Illustrator 21.0.0, SVG Export Plug-In . SVG Version: 6.00 Build 0)  -->
<svg version="1.1" id="Layer_1" xmlns="http://www.w3.org/2000/svg" xmlns:xlink="http://www.w3.org/1999/xlink" x="0px" y="0px"
	 viewBox="0 0 640 480" style="enable-background:new 0 0 640 480;" xml:space="preserve">
<style type="text/css">
	.st0{fill:none;stroke:#000000;stroke-miterlimit:10;}
</style>
<path class="st0" d="M34.2,35.7c-8.9,2.8-14.9,9.9-13.8,16.8c1.7,10.3,20.2,18.5,33.4,8.1c6.3-5,8.6-12.3,5.5-18.7
	c-5.4-11.3-22-17.3-38-19.1c-1.7,11.6-2.2,23.2-1.5,34.8c0.1,2.2,0.4,4.5,2.2,6.1c2.5,2.2,6.8,2.6,10.7,2.8
	c8.4,0.4,16.7,0.9,25.1,1.3c2.9,0.2,6.1,0.3,8.6-0.8c5.3-2.4,4.1-8.2,1.7-12.3c-3.4-6-7.9-11.7-13.3-16.9c-3.8-3.6-8.8-7.3-16-5.8
	c-3.8,0.8-6.8,3-8.2,5.7c-3.4,6.4,0.1,12.7,3.5,18.5C40,47.9,33,36.2,20.5,33.3c-5.1,12.1,10.5,26.1,27.9,25
	c-0.1-6.6-0.2-13.2-0.2-19.8c-6.3,1.9-9.2,8.3-5.5,12.5c2.7-3,3.4-6.9,2-10.4"/>
<path class="st0" d="M322.9,32.9c-9.9-1.3-19.7-2.5-29.6-3.8l5.6-6.1C301,32.4,314,39.7,327,38.9c-7.8-6.2-23.4-2.4-28.9,5
	c-5.5,7.3-4.2,16.2-2.6,24.5c4.4,0.9,4.8,1,9.2,1.9c14.2-13.9-1.6-36.7-24.9-37.5C274.1,42,281.5,53.3,293,59s25.9,7,39.7,7.7
	c-3.6-8.4-13.3-15.2-25-17.5c-6.1,3.5-12.6,7.4-12.8,13.6c-0.1,3.8,3.6,7.4,8.9,7.5c8.2,0.2,11-8.3,7.5-13.6
	c-3.4-5.3-10.2-9.2-12.6-14.8c-2.4,7.6-1.6,15.7,2.1,23c8.3-8.4,4.4-21.7-7.9-26.8c-2.6,5.6-4.1,12-0.5,17.3s13.7,8.5,20.2,5
	c-0.8-9.1-5.3-18.1-12.9-25.4c-6.5,4.9-8.1,13-3.8,19c10.1-2.7,13.3-13.8,5.7-19.3c-5.4,2.7-7.6,8.4-4.9,12.7s10,6.9,16.4,5.7"/>
<path class="st0" d="M565.1,25.3c-27.6-2.9-54.7,17.9-49.2,37.8c19-6,27.9-24.9,17.9-38.2c-9.4,8.3-11.7,20.5-5.7,30.2
	c0.7,1.1,1.6,2.3,3,2.9c4.3,1.8,8.8-2.3,10.2-5.7c4.6-10.7,4-22.5-1.7-32.9c-8.7,10.5-9.4,24.2-1.8,35.1c8.9-5.9,8.7-17.6-0.5-23.2
	c-10.4,6.3-10.7,19.5-0.6,26.1c11.4-8.6,14.7-22.4,7.7-33.2c-5.1,6-10.4,12.7-9,19.6s13.3,12.9,21,8.5c5.3-4.3,0.7-12-6.9-13.5
	c-7.6-1.6-15.8,1.7-20.5,6.4c-4.7,4.7-6.5,10.4-8.3,16.1"/>
<path class="st0" d="M312,190.8c-18.3,11.1-29,28.5-28.2,45.8c19-1.3,32-18.7,23.1-30.9c-2.9-4-8.3-7.6-15.4-5.8
	c-3.7,1-6.5,3.3-7.6,6.1c-2.7,6.3,1.3,12.3,5.1,17.8c3.6,1.6,8.5,1.4,11.9-0.4c1.3-7.6,1-15.3-0.8-22.9c-6.3,11.7-8,24.7-5,37
	c9.8,4.1,22.2-4.1,22.2-12.3c0-8.2-7.6-15.2-14.8-21.5c-2.4,7.6-1.7,15.7,1.9,23c1.6,3.2,4.2,6.6,9.6,6.7c3.4,0,6.4-1.5,8.1-3.6
	c6.3-8-3.9-17.3,0.6-25.2c-6.5,1-13.3,2-18.7,4.9c-5.4,2.9-8.9,8.2-6.4,12.7c2.5,4.5,12.4,6.2,16,2.1c2.8-7.2,3.3-14.8,1.3-22.1
	c-4.8,9.4-7.3,19.6-7.1,29.6c2.5-4.1,5-8.1,7.4-12.2"/>
<path class="st0" d="M568.4,220.8c-8.6-6.3-18.7-13.2-31.4-11.4c-8,1.1-13.6,6.6-11.3,12.3c1.6,4,5.9,5,10.1,6
	c10.8,2.5,22,5,33.3,3.1c5.3-0.9,10.3-2.9,13.8-6c14.7-12.6-8.5-27.4-25.7-22.9c-14.8,3.9-21.7,17.2-18.3,28.4
	c9-1.5,15.1-8.1,16.4-14.8s-1.1-13.4-3.4-19.9c-0.4,8.9-0.9,17.7-1.3,26.6c7.9,0.2,13.1-6.7,11.5-12.3c-1.5-5.6-7.5-9.9-13.1-13.9
	c-2.9,9.8-3.1,20-0.7,29.8c11.4-3,19.5-13,13.1-21.4c-2.3-3-6.4-5.2-11.1-5.9c-16.3-2.6-22.4,11.3-14.3,18.2
	c6.1,5.1,18.2,5.3,25.1,0.8c6.9-4.5,8.2-12.8,3.4-18.6c-2.5-3.1-7.3-5.7-12-4.7c-3.5,0.7-5.8,3.3-6.8,5.8
	c-4.2,10.9,15.3,22.1,28.9,16.5c13.6-5.6,10.6-23.5-4.5-26.5c-16.3,11.3-27.3,26.7-30.8,42.9c11.4,0.9,23.2-3.4,29.2-10.5
	c6-7.1,5.8-16.7-0.4-23.7c-7.3,4.3-14.5,9.3-17.5,15.8c-3.1,6.8,0.2,15.6,9.7,18c4,1,8.5,0.4,12.2-1.2c14-6,5.7-18.8-6.1-19.6"/>
<path class="st0" d="M54.8,209.7c-3.9,4.3-8,9-7.5,14.2c0.4,5.2,7.9,10.2,14.4,8c6-2,6.5-8,6.1-12.8c-0.9-9.2-2.3-19.4-11.4-25.8
	c-14.8,11.6-5.4,34,15.8,37.6c3.6-7.4-1.7-16.4-11.4-19.7c-13.2,13-16.1,31.1-7.5,45.9c17.2-14.2,22.8-35.3,14.2-53.2
	c-14.8,7.5-16.5,25.3-3.3,34.2c4.3-9.2-1.3-20.3-12.7-25.3c-3.1,9.3-4.2,18.9-3.2,28.4c0.5,4.7,4.9,10.9,10.8,9.1
	c1.9-0.6,3.1-1.9,4.1-3.1c4.7-5.8,6.9-12.6,6.2-19.3c-5.2-3.7-15.2,1.2-14,6.4c1.2,5.2,10.1,8.1,17,6.6c2.7-8.9,2.1-18.2-1.7-26.9
	c-1.4-3.1-5.1-6.8-9.3-5.6c-2.6,0.7-3.5,3-4.2,4.9c-4.4,14-5.6,28.6-3.6,42.9c8.7,2.5,16.7-5.1,18.2-11.8c1.7-7.1-0.4-15.5-8.6-19.5
	c-8.2-4.1-22.5-0.2-22,7c0.2,2.6,2,4.9,4.2,6.9c6.2,5.7,16.1,9.5,26,8.9c9.9-0.7,19.2-6.6,19.9-13.8c0.7-7.2-9-14.4-18.8-13
	c-12,1.7-16,13-13.9,21.8c0.5,2.2,1.4,4.6,3.8,6.1c4.4,2.9,11.5,1.2,16.3-1.3c9.2-4.9,15.3-12.6,16.5-20.8
	c0.8-5.4-2.4-12.2-9.7-12.6c-4.5-0.2-8.4,2.2-11.7,4.5c-6.4,4.4-12.8,8.8-19.2,13.2"/>
<path class="st0" d="M57.9,384.4c-28.1,19.4-45.2,47.1-46.4,75.2c-0.3,7,1,15,10.6,18.2c5.6,1.9,12.3,1.2,17.5-1.2
	c10.1-4.8,13.2-13.6,13.2-21.9c0.1-11.5-5-23-14.3-32.3c-2.8-2.7-7.2-4.6-11.8-4.3c-9,0.6-11,7.9-11.1,13.7
	c-0.1,5.3,1.1,11.7,8.6,13.6c5.1,1.3,10.7-0.4,14-3.6c5.6-5.5,4.5-12.3,3.3-18.7c-0.3-1.4-0.6-2.9-2-3.8c-2.9-2-7.6-0.3-10.5,1.7
	C11.5,432.5,4,451.3,10.1,467.8c18.9,3.6,40.5-7.6,41.9-21.8c0.3-3.1-0.7-6.9-4.6-8.2c-6.3-2.1-11.9,3.7-14.3,8.4
	c-3.2,6.1-4,15.6,4.9,16.7c9.9-11.6,12.9-26.2,8.1-39.4c-22.3,11.6-36.7,30.9-37.9,50.8c20.4-8.9,33.7-25.9,33.5-43.3
	c-0.1,3.1-0.2,6.2-0.3,9.3c0-3.7,0-7.3,0-11"/>
<path class="st0" d="M326.2,416.2c-15.7,15.8-21.8,36.5-16.3,55.7c18.8,0,15.2,0,34,0c4.4-18.8-9.3-39.2-32.6-48
	c-3.9,3.7-2.2,9.8,3.4,12.2c5.4,5.1,17.8,3,22-2.6c4.2-5.6,1.8-12.8-3-18.2c-11.4,4.9-17.3,15.7-13.8,25
	c11.5-2.5,21.9-7.5,29.6-14.2c4.3-3.7,7.9-8.5,5.3-13.4c-1.3-2.4-4.4-4.2-7.9-4.2c-5.4,0-7.9,3.5-9.5,6.8c-4.7,10.1-5,21.2-0.9,31.4
	c21.2-11.4,31.6-32.5,25.1-51c-11.7,18.6-23.3,37.2-35,55.8c-4.5,7.2-9.1,14.9-7.6,22.7c24.3-10.6,37.6-33,31.4-53.1
	c-5.5,10.3-8.6,21.3-9.1,32.3c10.6-3.7,13.5-15.5,5.2-21.6c-3,10-5.9,20.1-8.9,30.1c15.3-6,26.6-17.2,30-29.6
	c0.4-1.6,0.6-3.5-1.2-4.5c-1.8-0.9-4.8,1.3-2.9,2.1"/>
<path class="st0" d="M600.7,413.8c2.7,8.8,5.3,17.6,8,26.3c9.5-4.3,8.2-16.6-2.1-19.8c-4.5,10-3.1,21.3,3.8,30.6
	c9.5-15.8,7.1-35.1-6.2-49.4c-3.9,14-5,28.5-3.3,42.8c-10.4-1.8-19.7,9-13,15c4.3,3.4,11.8-1,14.2-5.4c8.8-16.2,0.5-36.5-19.1-46.5
	c-7,11.8-9.3,25-6.5,37.6c0.4,1.9,1.1,4,3.3,5c2,1,4.6,0.8,6.9,0.4c16.9-2.8,26.9-18.4,19.2-29.7c-1.2-1.8-2.9-3.5-5.3-4.2
	c-5.4-1.7-11.2,1.6-14.9,5c-8.7,7.8-15,16.9-18.4,26.6c-1.7,4.8-2.6,10.2,5,13.7c5.5,2.6,12.7,2.5,18.6,0.4
	c11.6-4.3,24.1-11.6,26.8-21.4c2.1-7.7-3.6-16.8-14.1-18.6c-3.9,6.5-12.7,11-13.8,18.5c-0.5,3.4,1.5,7,5.8,8.5
	c5,1.8,9.1-0.2,11.9-2.7c6.3-5.7,5.1-15.9-5.7-18.1c-8.8-1.8-15.4,2-13.4,8.5c2.3,7.4,18.3,5.8,22.7-0.6c4.2-6.3,1.1-13.7-2-20.3
	c-3.4,9.3-4.9,19.1-4.4,28.7c1.3-6.5,0.6-13.3-2.1-19.6c-13.4,6.7-21.8,18.3-21.8,30.1c25.6-17.2,43.8-40.2,51.5-65"/>
<path class="st0" d="M580.7,57.7c-13.7-8.1-26.1-17-36.8-26.5c7.1-4.8,4.4-3,11.5-7.8c13.8,10,15.9,24.9,5.2,36.1
	c-14.3-10.9-8.9-28.8,10.9-36.1c5.9,11.5-15.9,24.4-35.6,21c-13-3.4-5.7-17,8.5-17.6c14.2-0.6,25.5,8.1,26.2,16.4
	s-6.1,16.2-12.7,23.6C540.7,47.3,536.1,24.2,545.3,3c22.6,12.8,32.7,32.8,25.6,50.8c-1.7,4.4-6.2,9.4-13.9,9.4
	c-8.5,0-12.5-6.1-14.1-11.1c-3.6-10.7-1.8-26,16.6-27.1c14.8,10.6,7.6,29-13.6,34.8c-14.4-9.4-10.9-26.2,6.9-33.3
	c7.1,8.2,14.4,16.9,13.6,26s-13.3,18.6-28.9,18c-3.9-13.1,8.1-27.2,28.3-33.2c16.2,10.4,16.9,27.9,1.5,38.7
	c-15.3-11.7-23.7-26.5-23.2-41.3"/>
<g>
	<g>
		<path d="M24.6,54.9c4.5,2,9.1,4,13.6,6.1c3.9,1.7,8.3,4.6,12.6,5.2c6.2,0.8,9.4-5.8,8.9-11.1c-0.5-5.4-4.9-11.9-10.8-12.4
			c-5.8-0.5-8.8,8.9-9.3,13.3c-0.5,4.5,0.3,12,6.4,11.7c6.2-0.3,10.6-8.1,10.4-13.7c-0.1-3.5-3.7-11.6-8.4-9.4
			c-4.9,2.3-0.7,12.4,1.4,15.2c3,4.2,11.6,8.8,12.8,0.4c1-7.4-8.5-14-14.2-16.5c-0.7-0.3-1.6-0.2-2.1,0.5
			c-3.3,5.6-2.3,12.5,2.7,16.7c1.2,1,3.3-0.3,2.4-1.8c-5.9-9.3-11.8-18.6-17.7-27.9c-0.6-1-2.5-1-2.7,0.4c-1.9,9.6-3.1,19.3-3.7,29
			c0.9-0.3,1.9-0.5,2.8-0.8c-3.4-6.5-7.3-12.6-11.7-18.5c-0.2,0.7-0.4,1.4-0.5,2.1c4.2-2,8.6-1.2,12.7,0.4c3.3,1.3,9,3.3,9.1,7.7
			c0.1,4.7-7.7,7.7-11.2,5.6c-2.8-1.7-3.5-5.6-2.9-8.6c1.3-6.7,8.3-10,14-12.2c2.1-0.8,3.7-1.1,5.1,1.3c0.9,1.6,0.8,4.7,0.9,6.5
			c0.1,1.4,0,2.9-0.1,4.3c-0.1,1.3-0.2,2.6-0.5,3.9c0.2,1.6-0.6,2.4-2.2,2.2c-4.8,1.5-13.1-8.2-15.5-12c-0.8-1.2-2-3-2.1-4.4
			c-0.4-4.1,3-5.6,6.1-5.8c4.2-0.2,7.8,2.4,9.6,6c1.4,2.9,1.9,6.5,0.9,9.7c-1.9,6.4-8,3.1-11.7,0.8c-1.3-0.9-3.4-1.9-4.4-3.2
			c-1.4-0.5-1.7-1.1-0.7-2c0.3-0.9,1-1.6,2-1.9c1.6-1.2,4-2.2,5.8-2.8c1-0.4,8.7-2.6,7.3,1.2C39,42,41.9,42.8,42.6,41
			c1.1-3.1-1-5.8-4.2-6.2c-5.1-0.6-12.6,3-16.1,6.4c-2,1.9-2.2,3.4-0.3,5.6c2.9,3.4,9.9,8.1,14.5,8.6c9.2,0.9,9.6-12.3,6.9-18
			c-3.4-7.1-15.1-11.7-20.7-4c-5.4,7.4,7.5,17.9,12.6,21.7c2.5,1.9,6.4,5.7,9.8,3.6c4-2.5,3.4-11.5,3.2-15.3
			c-0.2-3.3-0.2-9.3-4-10.8c-3.6-1.5-9.9,2.5-12.8,4.2c-6.7,3.9-12.5,12.5-7.6,20.1c5.2,8.1,18.3,2.8,18.7-6.1
			c0.2-5.2-5.6-7.3-9.5-9c-5.6-2.5-11.3-3.6-17-0.9c-0.7,0.3-1,1.4-0.5,2.1c4.4,5.8,8.3,12,11.7,18.5c0.7,1.4,2.7,0.6,2.8-0.8
			c0.5-9.5,1.7-18.9,3.6-28.2c-0.9,0.1-1.8,0.2-2.7,0.4c5.9,9.3,11.8,18.6,17.7,27.9c0.8-0.6,1.6-1.2,2.4-1.8
			c-4-3.4-4.9-8.6-2.2-13.1c-0.7,0.2-1.4,0.4-2.1,0.5c4,1.8,7.4,4.2,10.1,7.6c0.6,0.7,1.2,1.5,1.6,2.3c-0.8,5.4-2.4,6.7-4.9,3.6
			c-1.9-1.8-3.2-4.2-3.9-6.7c-0.4-1.4-1.6-5.4,1.8-4.4c3.6,1,1.7,8.7,0.7,10.6c-0.9,1.7-3.2,5-5.4,5.1c-5.1,0.3-4.5-6.4-4-9.3
			c0.7-3.9,3.4-11.5,8.5-8.6c4,2.3,6.5,7.6,5.2,12.1c-2.3,7.9-12.2,1.6-16.7-0.4c-4.5-2-9.1-4-13.6-6.1
			C24.4,51.5,22.9,54.1,24.6,54.9L24.6,54.9z"/>
	</g>
</g>
<g>
	<g>
		<path d="M51,35.9c-4.8,7.7-3.5,17.8,3.1,24c4.2,3.9,11.6,0.1,9.9-5.8c-1.7-6.1-5.7-10-11.5-12.3c-2.6-1-5.3,0.7-6.7,2.7
			c-3.5,5-6.4,10.7-4.8,16.9c1.5,5.9,6.7,9.8,12.8,9.7c12-0.3,19.3-14.5,14-24.8c-2.4-4.7-8.8-10.8-14.4-10.1
			C46.2,37,43.3,47.5,40.7,53c-2.7,5.8-2.2,12.6,5.1,14.4c5.4,1.3,11.3-1.7,13.4-6.8C65.5,45.7,39.9,35.2,30,31
			c-2.9-1.2-6.6,1.4-7.3,4.2C19.8,46,25.9,59.6,38.9,57.5c14.4-2.4,11.8-19.6,4.6-27.8c-10.8-12.4-19.2,9.9-20.9,17.9
			c-1.2,5.7-1.6,12.1,2.6,16.7c3.8,4.2,9.8,5.4,15.1,4.1c11.4-2.8,21.3-13.7,12.4-24.5c-3.4-4.1-8.7-9.5-14.1-10.6
			c-6.7-1.4-10.5,5-13.6,9.9c-4.7,7.6-13.7,24.9-2.9,31.3c9.1,5.4,23.9,0.2,32.3-4.4c9.3-5.1,22-15.5,16.8-27.4
			c-2.1-4.8-6.2-10.4-11.4-12.1c-6.3-2-12,1.2-16.7,5.2c-7.1,6.2-17.9,21.1-12.5,31c6.6,12,22.5,4.9,30.5-1.1
			c4.4-3.3,9.8-7.7,11.3-13.2c1.5-5.5-1.8-11.2-4.9-15.5C64.5,32.7,60,27.9,54.9,26c-6.1-2.3-11.1,2-14.8,6.5
			c-3.5,4.3-6.9,10.3-6.7,16c0.2,6.2,5.7,9.1,11.3,9.6c9.1,0.7,27.7-4.2,27.3-16.2c-0.2-6.1-6.2-11.3-11-14.2
			c-5.5-3.4-12.2-4.9-18.6-4.3c-12.2,1.2-23.8,10.7-26.2,22.9c-1.2,5.9,1.1,12.7,7.6,14.1c6.2,1.3,15.1-1.9,20.3-5
			c5.8-3.3,9.3-9.2,8.1-15.9c-1.2-7.2-6.7-11.7-12.3-15.9c-2.6-1.9-6.6-0.4-8.1,2.1C26.2,35.2,20.7,54.2,33,61
			c9.5,5.2,28.7-1.1,26.8-13.9c-0.9-6.3-6.2-10.4-10.9-14c-4.9-3.7-11.4-8.7-17-3.4c-4.5,4.2-7.5,11.3-9.1,17.1
			c-1.8,6.2-2.8,13.7,1.9,19c8.4,9.3,24.8,6.3,35,2.2c5.4-2.2,11.6-5.3,15.5-9.8c4.5-5.3,2-11.2-1.9-15.9c-6.8-8-25.5-17.1-32-4.1
			C36.2,48,39.9,67.4,51,71.9c5.8,2.4,10.8-2,12.3-7.5c1.6-6.1-0.1-12.6-2.8-18c-2.6-5.3-6.8-11.6-11.6-15.2
			c-6-4.7-12.7-2.3-15.4,4.5c-4.4,11.1-5.7,29.8,8.1,34.8c6.3,2.3,12.9,0.7,18.9-1.7c5.1-2,10.2-4.6,12.3-10
			c4.9-12.4-10-25-19.1-30.8c-4.4-2.8-11.3-7.1-16.8-5.3c-6.5,2.1-8.1,10.6-8.6,16.5c-1,11.8,4,26,14.8,32
			c11.5,6.3,26.4-1.4,24.5-15.2c-1-7.2-6.1-12.6-11.3-17.2c-5.7-5-12-9.3-19.2-11.9c-6-2.2-13.6-3.6-19.5-0.3
			c-6.5,3.7-8.3,11.8-8.7,18.7c-0.7,12.3,6,32.3,21.1,31.9c7.7-0.2,12.5-6.5,12.8-13.8c0.2-7.6-3-14.5-7.5-20.4
			c-4.7-6-13.1,2.4-8.4,8.4c1.6,2.1,7.4,16.8,0.9,13.3c-4.9-2.6-6.7-11.3-7-16.2c-0.1-2.9,0.1-5.9,1-8.7c1-3.1,2.7-3.5,5.8-3.1
			c6.5,0.8,12.7,4.5,17.7,8.4c3.4,2.7,11.8,8.8,10.6,14c-1.6,6.9-10.2-0.5-12-3.2c-3.1-4.8-4.4-10.9-3.7-16.6c0.2-1.3,1.2-3.3,1-4.6
			c0.2-0.4,0.3-0.9,0.5-1.3c-2.8,0.4-3.1,0.9-1.1,1.3c2.4,1.8,5.8,2.8,8.4,4.6c4.3,2.9,10,7.5,12.1,12.5c1.3,3.1,0,3.8-2.8,5.1
			c-3.1,1.5-7.3,3.2-10.8,2.8c-6.6-0.8-5.4-9.5-4.5-14.3c0.1-0.4,1.5-4.9,1.4-5c-0.9,0-1.8,0.1-2.6,0.1c0.7,0.7,1.4,1.5,2.1,2.3
			c2.1,2.5,4.1,5.2,5.7,8.1c0.8,1.4,1.4,2.8,1.9,4.3c0.4,1.4,0.2,3.2,0.6,4.4c-0.1,0.5-0.1,1-0.2,1.5c4,0.8,5,0.3,2.9-1.4
			c-0.2-0.7-1.3-2-1.6-2.6c-1.4-2.7-2.2-5.7-2.1-8.8c0-0.9-0.1-3.8,0.6-4.5c1-1,3.5,0.1,4.7,0.5c2.4,0.8,4.5,2.2,6.3,3.9
			c1,1,2.3,2.2,2.9,3.5c0.1-0.4,0.2-0.9,0.3-1.3c-0.7,0.7-1.5,1.3-2.3,1.8c-5.3,3.8-11.6,6.2-18.1,7.1c-3,0.4-6.9,0.8-9.8-0.4
			c-2.9-1.2-2.7-2.9-2.2-5.9c0.7-3.9,2.2-7.7,4.2-11.2c0.3-0.5,0.6-1,0.9-1.4c1.4-1.3,1.3-1.7-0.2-1.3c-1.7-0.1-1.6,0.2,0.3,1.1
			c1,0.7,1.9,1.3,2.9,2c1.4,1,2.9,2.1,4.1,3.3c0.8,0.7,1.4,1.4,2,2.2c0.9,1,0.8,1.4-0.4,1.4c-1.2,1.2-5.8,2.3-7.5,1.7
			c-5.7-2.1,0.5-15.8,2.5-19.1c-2.7,0.7-5.4,1.4-8.1,2.1c2.8,2.1,9.3,6.7,5.4,10.5c-1.7,1.7-5.2,2.4-7.3,3c-1.1,0.3-2.6,0.5-3.6,0.9
			c-1.9-0.2-2.3,0.2-1.3,1c0.6,1,0.7,0.9,0.5-0.2c1-1.3,1.2-3.8,2.1-5.2c1.1-1.8,2.4-3.3,4-4.7c3.4-2.8,7.7-4.3,12.2-4.1
			c4.4,0.2,8.6,2,11.8,5c0.8,0.8,1.6,1.6,2.2,2.5c-0.9-1.4,1.7-1.2-0.6-0.6c-2.4,0.6-4.6,2.7-7.1,3.4c-2.7,0.7-5,0.4-7.8,0.7
			c1.7-0.2-1.2,4.2,1.1,0.2c0.5-0.8,0.8-1.9,1.2-2.8c0.9-1.8,2.9-5.1,4.8-6c-0.5,0.2-2.4-1.9,0.4,0.4c1.1,0.9,2.3,1.7,3.3,2.8
			c1.6,1.6,2.9,3.3,4,5.2c1.4,2.4,2,3,0.3,5.1c-3.1,3.9-7.9,7.1-12.4,9c-1.1,0.5-4.5,2.1-5.7,1.2c-1-0.8,0.7-4.2,1.2-5.2
			c1.9-4.5,5-8.8,8.8-11.9c2.4-1.9,4-3.3,6.2-0.8c1,1.2,3.1,3.5,2.9,5.2c-0.3,3.9-8,8.6-10.9,10.3c-4,2.4-8.3,4-12.8,4.9
			c-2.1,0.4-4.5,0.8-6.6,0.6c-0.6,0-1.7,0.1-2.2-0.4c1.5,1.4,1.4-1.8,1.7-2.7c0.8-2.7,1.8-5.4,3.1-7.9c1.2-2.4,3.3-4.7,4.3-7.2
			c1.2-3,1-0.5-0.8-1.3c1.4,0.6,2.6,1.8,3.7,2.8c1.3,1.2,4.5,3.7,4.1,5.2c-0.4,1.5-5.6,3.7-6.9,3.8c-2.6,0.3-3.6-0.5-3.5-3.1
			c0-2.6,1-5.4,1.8-7.9c0.7-2,2.3-7.7,4.3-8.7c-1.5,0.2-3.1,0.4-4.6,0.6c-1-1-1-0.8,0,0.5c0.7,1,1.3,2,1.8,3c0.4,1,1.7,3.9,0,4.5
			c-3.8,1.5-3.3-5.8-2.9-7.4c-2.4,1.4-4.9,2.8-7.3,4.2c6.5,2.7,13.3,6.2,18.7,10.7c1.9,1.6,2.6,2.6,4.5,3.7c1.2,1.8,2,1.6,2.3-0.6
			c0.4-0.9,0.9-1.8,1.3-2.7c0.7-1.4,2.6-3.8,2.6-5.3c1.1-1.7,0.1-1.8-3.1-0.4c0.4,0.3,0.9,0.6,1.3,0.9c0.7,1.2,2.3,1.8,2.8,3.2
			c0.7,1.8,0.3,4.3-1,5.7c-1.2,1.4-3.3,2.3-3.9,0.2c-0.6-2.3,2.6-5.9,3.7-7.4c-2.2,0.9-4.5,1.8-6.7,2.7c1.8,0.7,2.7,2.2,3.2,4
			c3.3-1.9,6.6-3.9,9.9-5.8c-2.9-2.7-3.3-6.2-1.3-9.5C65.3,35.4,55,29.4,51,35.9L51,35.9z"/>
	</g>
</g>
<g>
	<g>
		<path d="M303,57.2c7.7,0,7.7-11.9,0-11.9C295.3,45.2,295.3,57.2,303,57.2L303,57.2z"/>
	</g>
</g>
<g>
	<g>
		<path d="M303.9,50.2c3.2,0.4,6.4,1.4,9.3,2.8c1.4,0.7,2.9,1.5,4.2,2.4c1.1,0.7,3.2,3.3,4.3,3.6c0.2,0.2,0.3,0.3,0.5,0.5
			c0.2-0.6,0.4-1.2,0.5-1.8c-0.2-0.1-0.7,0.4-0.9,0.4c-0.8-0.1-2.4,0.4-3.2,0.5c-3.3,0.3-8,0.7-10.8-1.3c-4.8-3.5,3-11.3,5.7-14
			c4.3-4.3,9.7-7.6,15.5-9.2c3.4-1,4.3-0.4,5.9,2.8c1.8,3.5,2.9,7.6,3.2,11.4c0.4,4.4-2.6,5.2-6.4,6.4c-3.4,1.1-6.9,1.7-10.5,1.8
			c-6,0.1-13.8-1-18.4-5.3c-5.6-5.1,0.2-12.4,4.1-16.6c0.2-0.2,1.7-1.5,1.6-1.7c-0.8-0.4-1.6-0.9-2.4-1.3c0.2,0.4,0.4,0.8,0.7,1.2
			c0.2,1.7,0.9,3.1,0.8,4.8c-0.1,3.4-1.3,6.8-3.3,9.5c-4.4,6.2-11.9,9.7-18.8,12.3c-3.9,1.5-6.2,6.7-2.6,9.9
			c8.1,7.3,18.8,10.5,29.7,9c9.7-1.4,21.2-7.5,23.9-17.7c2.7-10-7.7-21.8-17-24.2C306.4,33.1,300,47.3,300.6,58
			c0.3,5.1,2.6,9.7,8.1,10.3c5.6,0.6,12-3,16.5-6c4.4-2.9,9.3-6.6,10.9-11.9c1.8-6-0.7-11.4-4.6-15.9c-3.5-4-8.3-8.6-13.6-9.8
			c-6.1-1.4-11.7,1.7-16.2,5.6c-6.7,5.8-19.3,23-10.7,31.5c4.2,4.2,11.5,3.4,16.8,2.3c6.4-1.2,13.4-4.3,17.9-9
			c12.4-12.7-19-20.7-26.5-21.8c0.5,3.6,0.9,7.3,1.4,10.9c5.2-2.3,15.5-4.3,16.5-11.2c0.9-7-6.9-10.9-12.8-10
			c-6.7,1-11.4,6.9-15.6,11.8c-4.3,5.1-8.9,10.9-10.6,17.5c-1.7,6.4,3.6,11.6,10,9.6c3.5-1.1,6.9-3.8,9.9-5.8
			c2.3-1.6,4.6-3.2,5.9-5.8c2.9-5.8-0.8-12.4-6.9-13.8c-7.2-1.7-12.7,4.2-14.1,10.7c3.3-0.9,6.6-1.8,9.9-2.6
			c-3.3-3.1-6.1-6.4-8.6-10.2c-2.6-4-7.6-3.6-10.3,0c-2.7,3.6-3.1,7.7-2.3,12c1.5,7.5,13,4.3,11.5-3.2c-0.2-1.2,0.4-1.8,1.1-2.8
			c-3.4,0-6.9,0-10.3,0c3,4.6,6.4,8.8,10.4,12.6c3.1,2.9,8.9,1.9,9.9-2.6c0.4-1.9,1-1.9-0.3-3.7c-1.5-2-1.6-1.1-3.6,0.2
			c-1.4,0.9-4.7,3.8-6,3.7c1.4,0.6,2.8,1.2,4.2,1.7c1.7,1.5-0.1,5.2,1.8,1.1c0.4-1,0.9-1.9,1.5-2.8c1.4-2.3,2.9-4.5,4.7-6.6
			c1.6-1.8,3.2-3.6,4.8-5.4c0.7-0.8,1.4-1.6,2.2-2.3c0.5-0.6,1.1-1,1.9-1.3c0.9-0.1,0.9-0.5,0-1.2c0.2-1.5,0.4-3.1,0.6-4.6
			c0.1-0.1-4.1,1.5-4.9,1.9c-2.2,0.9-4.4,1.9-6.6,2.8c-4.5,1.9-3.5,10.2,1.4,10.9c4.1,0.6,8.1,1.5,12,2.9c1.7,0.6,3.4,1.3,5.1,2.2
			c1.1,0.5,2.1,1.1,3.1,1.7c1.7,1,2,1.2,1,0.6c-0.2-1.5-0.4-3.1-0.6-4.6c0.2-0.8-2,1.2-2.7,1.6c-1.7,1-3.5,1.8-5.4,2.5
			c-0.7,0.2-10,1.6-9.8,1.3c0.5,0.6,1,1.3,1.5,1.9c0.2-1,0.5-2.1,0.9-3.1c0.5-1.5,1.2-3,2-4.4c1.6-2.8,3.5-5.4,5.9-7.6
			c2.6-2.5,5.1-4.5,8.5-2.3c2.3,1.5,6,4.7,6.9,7.3c1.2,3.3-2.6,5.5-5.1,7.2c-1.3,0.9-2.7,1.7-4.1,2.4c-1,0.5-3.9,1.1-4.4,1.8
			c-1.3,0.2-1.1,0.6,0.5,1.2c1.2,1.3,1.6,1.3,1.3-0.2c0.4-1.1,0.2-3.5,0.5-4.7c0.6-2.6,1.4-5.4,4.5-4.2c2.2,0.9,5.3,4.4,6.6,6.4
			c1.8,2.9-0.3,5.2-2.7,7.2c-8.6,7-22.2,6.2-30.2-1.1c-0.9,3.3-1.8,6.6-2.6,9.9c11.5-4.4,23.2-10.6,28.4-22.4
			c3.4-7.8,4.2-29.1-9.3-28.1c-5.9,0.4-10.6,6.8-13.8,11.2c-3.7,5.1-6.1,11.4-5,17.8c2.2,12.9,16.9,17.9,28.3,18.9
			c10.6,0.9,30.1-1.9,32.7-14.5c1.2-5.8-0.6-12.8-2.6-18.2c-2-5.3-4.9-11.2-10.6-13.2c-10.7-3.8-24.9,5.8-32,13.1
			c-7.9,8.1-15.6,21.2-5.1,30.5c7.5,6.7,30.8,8.5,34.3-4c2-6.9-4-12.2-9-15.7c-6.2-4.4-13.3-6.7-20.8-7.7c-3.2-0.4-5.9,3-6,6
			C297.9,47.8,300.7,49.8,303.9,50.2L303.9,50.2z"/>
	</g>
</g>
<g>
	<g>
		<path d="M545.1,31.9c-10.9,3.8-20.7,13.3-22.5,25.2c-1.1,7.4,4.3,11.6,11.4,10.2c6.4-1.2,12.4-4.5,17.4-8.6
			c4.5-3.7,8.8-8.7,9.9-14.6c1-5.8-1.8-11.5-7.8-12.9c-13.8-3.4-21.8,19-24.7,28.9c-1.3,4.6,3,8.2,7.3,7.3c6-1.2,9.8-7.2,12.5-12.2
			c2.9-5.4,4.5-11.6,2.9-17.7c-1.3-5-5.2-10.7-10.7-11.8c-7.5-1.5-10.1,6.5-11.9,12.1c-1.9,5.9-3.4,12.8,0.4,18.3
			c3.1,4.5,8.7,6.3,13.9,6.6c6.3,0.3,12.8-1.4,18.5-4.1c5.2-2.4,12-6.3,13.3-12.4c1.4-6.1-3.2-10.4-7.5-13.9
			c-4.7-3.8-11.7-9.1-18.1-8.7c-13.3,0.9-11.1,23-7,30.9c5.2,10.1,21.5,17.8,29.1,5.7c7-11.1-0.7-24.9-9.3-32.5
			c-4.6-4.1-10.9-6.2-16.1-1.7c-4.6,4-7.6,10.8-8.8,16.7c-2.6,12.6,3.7,24,16.6,26.4c10.3,1.9,28.1-1.7,26.4-15.7
			c-0.7-6.2-6.7-11.2-11.2-14.9c-5-4.1-10.4-7.6-16.4-10.3c-5.1-2.3-11-3.4-14.6,1.9c-3.6,5.4-4.6,14.2-4.8,20.5
			C533,64.2,544.2,70.8,556.8,68c10.1-2.2,25.3-12.3,20.8-24.4c-3.7-9.9-17.5-22.2-28.7-18.9c-5.5,1.6-9.4,7.2-12.6,11.6
			c-3.7,5.1-6.3,11.1-5.8,17.6c1,13.8,15.7,19.3,27.8,17.6c12.3-1.6,24.1-10.9,21-24.4c-1.5-6.5-6-11.7-10.7-16.2
			c-4.5-4.3-9.5-8.5-15.4-10.9c-12-4.7-21.9,3.6-25.4,14.9c-3.9,12.2,0,24.7,12.5,29.6c11.5,4.5,25.3,1.9,34.9-5.6
			c4.4-3.4,7.3-8.1,5.6-13.9c-1.9-6.4-8.5-11.6-13.5-15.6c-8.4-6.5-23-15.3-34-11.8c-11.5,3.7-15.1,22.1-9.6,31.7
			c6,10.6,20.3,13.7,31.6,13.4c10.6-0.3,28-4.7,31.5-16.4c3.6-12.2-13.3-24-23.3-26.4c-6.3-1.5-12.1,0.1-17.5,3.3
			c-6.4,3.7-13.2,8.4-18.3,13.8c-3.9,4.1-6.2,10.1-2.6,15.2c3.8,5.3,12,6.7,18,7.2c11.1,1,27.1-2.5,33.5-12.6
			c7-11.1-5.6-21.5-14.8-25.7c-11.2-5.1-23.7-4.1-33.5,3.5c-4.9,3.8-8.7,8.8-12,14.1c-3.1,5-6.4,10.9-5.8,17
			c1.4,13.3,21.4,16,31.9,15.9c8.3-0.1,32.6-3.2,27.8-17c-1.8-5.1-7.5-8.9-11.7-12c-4.7-3.5-12-9-18.1-8.9
			c-6.5,0.1-8.7,6.6-10.3,11.8c-2,6.3-3.6,13.9,0.2,19.9c7,11,24.2,8,33.1,1.2c8-6.1,10.2-20-0.2-25.2c-2.8-1.4-6.5-0.8-8.1,2.1
			c-5.4,9.6-17.2,36.5,1.1,39.9c14.1,2.6,29.2-11.7,25.5-25.8c-1.2-4.6-8.7-6.2-10.9-1.4c-2.9,6.3-2.9,12.3,0.2,18.5
			c1.7,3.5,6.8,3.8,9.3,1.2c2.6-2.7,4.3-5.6,5.4-9.2c2.2-7.4-9.3-10.5-11.5-3.2c-0.5,1.7-1.1,2.6-2.3,3.9c3.1,0.4,6.2,0.8,9.3,1.2
			c-1-2.1-1.1-4.4-0.2-6.5c-3.6-0.5-7.3-0.9-10.9-1.4c0.9,3.6-1.2,6.4-4.1,8.3c-1.5,1-6.4,3.8-7.8,2.5c-1.1-1.1,1.6-9,2-10.4
			c1.2-4.1,3-7.9,5.1-11.6c-2.7,0.7-5.4,1.4-8.1,2.1c5.2,2.6-4.4,7.4-6.5,8.1c-2.6,0.8-5.8,1.7-8.4,0.6c-3.5-1.5-2.3-5.2-1.6-8.2
			c0.3-1.2,0.6-2.4,1-3.5c0.2-0.6,0.4-1.2,0.6-1.7c1.4-2.1,0.6-2.5-2.1-1.4c0-0.1,7.7,4.1,8.4,4.5c2.3,1.5,4.6,3.1,6.7,5
			c0.3,0.2,3.5,3.4,3.6,3.4c0.9-2.4,0.5-3-1.1-1.7c-1.1,0.4-2.1,0.8-3.2,1.1c-6.1,1.8-12.6,2.4-18.9,1.5c-2.8-0.4-5.6-1.1-8.3-2.1
			c-4.4-1.6-5.7-2.6-3.6-7.1c4.5-10,13.4-21.4,25.5-20.4c5.2,0.4,10.2,2.8,14.2,6.2c0.8,0.7,2.7,2.1,3.1,3.1
			c0.5,1.5,0.6,1.2-0.9,2.6c-2.1,2-5.5,3.4-8.2,4.3c-5.5,1.8-11.5,2.2-17.2,1c-0.4-0.1-4.6-1-4.6-1.4c0,0.2,3.1-2.4,3.2-2.5
			c2.8-2.4,5.8-4.6,8.8-6.7c5.9-4,10.6-6.7,17.4-3.2c2.9,1.5,5.5,3.5,7.7,5.9c0.8,0.8,2.9,2.7,2.7,4c-0.2,1.3-3.3,2.9-4.3,3.5
			c-9.2,5.5-25.6,6.7-34.5-0.3c-4.5-3.5-4.1-10.4-1.5-15.1c3.1-5.4,12.8,0.2,16.9,2.4c5.3,2.8,10.1,6.3,14.2,10.7
			c0.6,0.6,3.2,2.9,3.2,3.8c0,0.7-0.9,0.9-1.3,1.4c-1.9,2.5-7,3.9-9.9,4.6c-5,1.1-11.1,1-15.6-1.8c-5.4-3.4-4.8-10.4-2.6-15.6
			c2-4.9,5.2-7.6,10.3-5.2c5.5,2.6,11.3,7.9,14.9,12.7c3.9,5.1,4,10.4-2,13.5c-5.1,2.6-13.9,3.4-18.6-0.7
			c-4.9-4.3-0.1-11.7,2.9-15.6c1.2-1.6,3.4-5.3,5.6-5.6c2.9-0.3,7,3.7,8.9,5.6c1.1,1.1,5.1,4.8,4.9,6.5c-0.3,2-4.6,4.7-6.1,5.6
			c-3.4,2.1-12.4,5.8-14.9,0.8c-1-1.9-0.3-5.3-0.1-7.3c0.2-1.2,1.4-10.5,2.6-10.7c-4.5,0.8,1.2,2.9,1.6,3.1c1,0.5,1.9,1,2.9,1.5
			c3.3,1.9,6.5,4.1,9.4,6.6c1,0.8,6.8,5.4,6.6,6.9c-0.3,2.7-7.2,2.9-9.1,2.9c-6.3,0-11.5-3-11-10.1c0.2-3.4,1.6-6.9,3.3-9.8
			c0.6-1,2.4-2.3,1.1-2.3c1.2,0,4,3.8,4.7,4.7c1.9,2.4,3.9,5.3,4.4,8.4c0.7,3.9-0.8,7.4-5.1,5c-2.3-1.3-3.9-3.7-4.8-6.2
			c-0.6-1.7-0.8-3.4-0.9-5.1c-0.1-2,1.1-5.2,0.6-6.9c0.1-0.4,0.2-0.7,0.3-1.1c-0.6,0.5-1.3,0.9-1.9,1.4c0,0.2,5.3,2.8,5.8,3.1
			c1.5,0.9,2.9,2,4.3,3.1c0.9,0.7,1.7,1.5,2.5,2.3c-0.4-0.5-0.9-0.2-1.4,0.9c-1.8,2.3-6.5,3.7-9.1,4.5c-3.2,1-6.8,1.7-10.1,1.2
			c-3-0.5-3.6-1.5-3.3-4.5c0.5-3.8,2-8.5,4.3-11.5c-1.2,0.9-2.4,1.8-3.6,2.7c-2.5,0.4-0.3,1.2,0.2,3.3c0.5,1.8,0.2,3.7-0.4,5.4
			c-0.8,2.7-3.7,9.3-6.7,9.9c2.4,2.4,4.9,4.9,7.3,7.3c1.3-4.7,3.2-9,5.6-13.3c1.1-1.9,3-3.9,3.7-5.9c1.5-0.8,1.5-1.7,0-2.7
			c0,0.6-0.1,1.2-0.3,1.7c-2.5,3.3-4.7,6.2-8.3,8.5c-1.8,1.1-3.6,2.1-5.6,2.9c-1,0.4-2,0.7-3,0.9c-1.6,0.2-1.5,0.4,0.2,0.7
			c0.6,1.4,1.2,2.8,1.7,4.2c-0.2-7.7,7.2-14.7,13.9-17C555.5,40.8,552.4,29.3,545.1,31.9L545.1,31.9z"/>
	</g>
</g>
<g>
	<g>
		<path d="M559.1,196c0.3-1.3,0.5-2.7,0.8-4c0.3-1.6,0.2-3.2-0.6-4.6c-0.7-1.2-2.1-2.4-3.6-2.7c-1.5-0.3-3.2-0.3-4.6,0.6
			c-1.3,0.8-2.4,2-2.7,3.6c-0.3,1.3-0.5,2.7-0.8,4c-0.3,1.6-0.2,3.2,0.6,4.6c0.7,1.2,2.1,2.4,3.6,2.7c1.5,0.3,3.2,0.3,4.6-0.6
			C557.7,198.7,558.8,197.5,559.1,196L559.1,196z"/>
	</g>
</g>
<g>
	<g>
		<path d="M554.2,189.8c5.4,1.4,11.8,5,9.5,11.6c-1.1,3.2-4,5.8-6.5,7.9c-0.6,0.5-1.3,1-1.9,1.5c-1.9,0.9-1.7,1.3,0.5,1.1
			c-1-1.4-1.8-2.9-2.6-4.4c-2.1-4.2-6.2-13-2.5-17.5c4.1-4.9,10.7,1.8,12.7,5.3c1.7,2.9,2.8,6.2,3.8,9.4c1.1,3.6,1.2,5.6-1.9,8
			c-5.8,4.4-13.8,6.7-20.9,7.7c-1.6,0.2-3.8,0.1-5.4,0.5c-2.4-0.4-2.5,0.4-0.2,2.3c0.2-0.3,0.4-0.7,0.5-1c1.1-0.7,2.3-3.5,3.1-4.7
			c1.1-1.5,2.3-3,3.5-4.5c2.1-2.4,4.4-4.7,6.8-6.8c1.2-1.1,2.5-2.1,3.8-3.1c0.9-0.6,1.7-1.3,2.6-1.9c1.8-0.9,1.8-1.1,0.1-0.6
			c-1.4-0.6-2.8-1.2-4.2-1.7c-0.4-1.4-0.4-1.2,0.2,0.9c0.3,1.2,0.6,2.3,0.8,3.5c0.5,2.4,0.9,4.8,1.2,7.2c0.2,2.3,1.6,8.9-0.9,10.4
			c2.7,0.7,5.4,1.4,8.1,2.1c-3.7-8.3-4.9-17.2-4.3-26.3c0.4-4.9-5.2-6.9-9-5.1c-9,4.2-14.3,16.3-18.8,24.6
			c-3.4,6.4-10.9,20.4,1.1,23.2c4.9,1.1,9.4-2.2,13.2-4.8c4.3-2.9,8.3-6.4,10.7-11c5.3-10,1.2-19.7-6.8-26.7c-3.1-2.7-9-2.1-9.9,2.6
			c-1.7,8.4-2.5,17.8-0.4,26.2c2,8.4,9.9,8.2,16.1,4.4c12.3-7.6,24.4-16.9,29-31.2c-3.8-1.1-7.7-2.1-11.5-3.2
			c-1.7,8-2.8,16-3.4,24.1c3.7-1,7.4-2,11.1-3c-3.5-6.7-6.5-13.6-9-20.8c-2.1-5.9-12.4-5.5-11.7,1.6c0.9,9.5,1.1,19.1,0.7,28.6
			c3.7-1,7.4-2,11.1-3c-1.7-3.5-2.6-7.2-2.6-11c0-1.7,0.1-3.2,0.4-4.9c0.2-1.1,0.5-2.1,0.8-3.1c1.3-2.3,0.4-2.5-2.6-0.6
			c-1.2-0.9-2.4-1.8-3.6-2.7c1.9,2.6,2.2,6.9,2.9,10.1c0.7,3.5,1.3,7,1.7,10.5c0.8,7.2,0.9,14.4,0.5,21.6c3-1.7,6-3.4,9-5.1
			c-6.8-4.1-12.8-9.4-17.3-16c-0.5-0.7-0.9-1.3-1.3-2c-0.4,1.7,0,1.8,1.2,0.3c1.8-0.6,3.6-2.4,5.4-3.2c1.9-0.9,8.5-3.9,10.4-2.7
			c1.5,1,0.7,8.3,0.5,9.9c-0.6,4-2.4,7.1-4.3,10.5c2.3,0.5,2.6,0.1,0.7-1.1c-0.4-0.4-0.8-0.8-1.3-1.2c-1.7-1.6-3.3-3.3-4.9-5
			c-2.8-3.1-5.5-6.3-8-9.6c-2.5-3.3-4.8-6.7-6.9-10.1c-0.6-1-1.2-2-1.8-3c-0.5-2-1.2-2-2-0.1c-1.4,0.8-1.5,1.6-0.3,2.3
			c0.8,0.8,1.6,1.7,2.4,2.5c4.9,5.1,9.8,12,17.6,12c6.7-0.1,12.7-5.6,14.7-11.7c2.8-8.4-1.2-16.8-5.1-24.1c-2.9-5.4-10.8-2.6-11.1,3
			c-0.3,5.7-0.5,11.4-0.8,17.1c-0.2,4.6,5.2,7.3,9,5.1c9.6-5.4,18.5-11.6,27.1-18.5c6-4.9-2.5-13.1-8.4-8.4
			c-7.7,6-15.4,12-23.1,18.1c-6,4.7,2.5,13.1,8.4,8.4c7.7-6,15.4-12,23.1-18.1c-2.8-2.8-5.6-5.6-8.4-8.4c-7.7,6.3-16,11.7-24.6,16.6
			c3,1.7,6,3.4,9,5.1c0.3-5.7,0.5-11.4,0.8-17.1c-3.7,1-7.4,2-11.1,3c2,3.8,4.8,8.3,4.4,12.8c-0.5,4.3-3.5,6.2-6.6,3.2
			c-5.4-5.2-11-14.9-19.8-13.3c-3.4,0.6-6.2,2.7-7.4,6c-1.6,4.3,0.9,8.3,3.1,11.9c4.8,7.9,10.3,15.4,16.5,22.3
			c4.8,5.4,12.3,15.6,20.6,11c6.9-3.9,10-13.8,10.8-21.2c0.7-7.2,0-18.4-8.1-21.1c-7.1-2.4-16.6,1.2-22.8,4.8
			c-3.3,1.9-7.5,4.5-9.4,8c-2.5,4.6-0.2,9,2.5,12.9c5.6,8,12.8,14.6,21.1,19.6c4,2.4,8.7-0.7,9-5.1c0.5-9.3,0-18.6-1.4-27.9
			c-1-6.6-1.6-20.2-8.9-23.1c-8.5-3.4-12.1,7.4-13.1,13.6c-1.4,8.1,0.1,16.1,3.7,23.5c2.8,5.6,10.8,2.5,11.1-3
			c0.4-9.6,0.2-19.1-0.7-28.6c-3.9,0.5-7.8,1.1-11.7,1.6c2.8,8.1,6.2,16,10.2,23.6c2.9,5.6,10.7,2.5,11.1-3c0.5-7.1,1.5-14,3-21
			c1.6-7.5-9.1-10.5-11.5-3.2c-2.8,8.7-9.9,14.8-17.2,19.9c-1.7,1.2-3.4,2.3-5.1,3.4c-1.8,1.2-3.1,1-1.2,2.6c2.4,1.9,1.1-0.3,1-1.9
			c-0.6-5.7-0.3-11.4,0.8-17.1c-3.3,0.9-6.6,1.8-9.9,2.6c4.3,3.8,7.7,8.1,4,13.7c-1.4,2.1-3.5,3.8-5.6,5.3c-1,0.7-2.7,1.3-3.5,2.2
			c-0.5,0.3-1,0.6-1.4,0.9c1.7,3.5,2.8,4.3,3.1,2.5c1.5-1.6,2.3-4.9,3.4-6.8c1.4-2.7,3-5.4,4.5-8.1c2.7-4.5,5.5-10.7,10.4-13.1
			c-3-1.7-6-3.4-9-5.1c-0.8,11.2,1.4,22,5.9,32.3c1.3,2.9,5.6,3.6,8.1,2.1c10.3-6,7.3-21.4,5.2-31c-1.1-5-2.7-11.8-9.3-11.3
			c-5.2,0.4-10.3,5.7-14,9c-4.4,3.9-8.2,8.3-11.7,13c-3.1,4.2-6.8,9.4-5.6,15c2.7,12.2,22.9,6.2,30.6,3.6
			c10.2-3.5,23.9-10,22.2-22.9c-1.3-10.2-7.3-23.1-17-27.7c-9.8-4.6-21.5-0.8-24.5,10.1c-2.9,10.3,2.4,23.9,9.1,31.7
			c5.2,6.1,11.1,2.7,16.4-1.4c4.9-3.9,9.5-8.5,11.4-14.6c4-12.9-6-23.2-17.9-26.2C549.9,176.5,546.7,188,554.2,189.8L554.2,189.8z"
			/>
	</g>
</g>
<g>
	<g>
		<path d="M294.2,217.3c7.5-1.5,13.6-6,17.6-12.4c1.8-2.9,0.4-6.3-2.1-8.1c-14.3-10.6-19.5,32.1-17.6,39.6
			c4.1,16.4,34.2-2.2,20.3-14.4c-2.9-2.6-7.2-2.2-9.3,1.2c-8.6,13.9-21.9,24-37.5,28.7c2.5,1.9,5,3.8,7.5,5.7
			c0.5-10.7,12.4-20,19.8-26.5c8.9-7.9,18.6-14.8,28.2-21.7c-2.9-1.2-5.8-2.4-8.7-3.6c1.5,9.6-1.3,18.9-7.1,26.5c3.4,0,6.9,0,10.3,0
			c-9.3-12.5-19.5-24.2-30.9-34.9c-0.9,3.3-1.8,6.6-2.6,9.9c0.8-0.3,4.6,2.5,5.4,2.9c2.3,1.3,4.5,2.5,6.8,3.8
			c4.2,2.4,8.5,4.7,12.7,7.1c8.7,4.9,17.5,9.7,26.2,14.6c0.5-3.6,0.9-7.3,1.4-10.9c-2.4,0.7-6.4-2.5-8.3-3.6
			c-2.8-1.6-5.5-3.1-8.3-4.8c-5.5-3.3-10.8-6.7-16.1-10.2c0,3.4,0,6.9,0,10.3c-1.4,0.7-0.6,0.1,0.2,1c0.9,1,2.8,1.8,3.9,2.5
			c2.3,1.6,4.6,3.1,6.8,4.8c4.6,3.3,9,6.9,13.3,10.6c3.9,3.4,9.9,1.1,10.2-4.2c0.3-5.4-1.1-10.6-2.5-15.8c-1-3.8-2.5-9.4,0.2-12.9
			c-3.1-0.4-6.2-0.8-9.3-1.2c-0.1-1-0.3-0.8-0.7,0.8c-0.5,0.9-1.1,1.8-1.7,2.7c-0.9,1.4-1.9,2.8-2.9,4.1c-2.5,3.4-5.3,6.6-8.2,9.7
			c-5.7,5.9-12,11-18.9,15.5c2.9,2.2,5.8,4.5,8.7,6.7c1.6-8.9,7.5-15.5,12.5-22.8c5.2-7.5,9.3-16.1,8.5-25.4
			c-0.4-4.8-6.4-8.3-10.2-4.2c-8.4,9-14.2,21.7-13.4,34.2c0.8,12.2,12.2,18,23.5,17.5c5.6-0.2,10.7-3.8,10.2-9.9
			c-0.5-6.6-7.2-9.5-12.4-11.8c-13.3-6.1-27.1-10.8-41.3-14.1c-1.1,3.8-2.1,7.7-3.2,11.5c21.9,3.5,43.8,7,65.7,10.5
			c0.5-3.9,1.1-7.8,1.6-11.7c-10.3-0.8-20.5-2-30.6-3.8c-4.5-0.8-5.9-1.6-7.8-5.8c-1.9-4.4-3.7-8.9-5.6-13.3
			c-2.3-5.4-11.5-2.7-11.1,3c0.9,11.9,2.8,23.8,5.7,35.4c1.9,7.4,13.4,4.3,11.5-3.2c-2.7-10.6-4.5-21.3-5.3-32.2
			c-3.7,1-7.4,2-11.1,3c3.9,9.2,6.4,21.1,17.4,23.9c11.9,3,24.7,4,36.9,4.9c6.6,0.5,8.2-10.6,1.6-11.7c-21.9-3.5-43.8-7-65.7-10.5
			c-7.4-1.2-10.8,9.7-3.2,11.5c8.3,1.9,16.6,4.3,24.6,7.3c4.1,1.5,8.2,3.1,12.2,4.9c2,0.9,3.9,1.7,5.8,2.7c0.7,0.3,1.4,0.7,2.1,1.1
			c2.8-2.7,3-3.9,0.7-3.6c-2.7-1-5.6-0.2-8.2-2c-3-2.1-2.4-6.2-1.9-9.5c1.1-7.5,4.5-14.4,9.7-20c-3.4-1.4-6.8-2.8-10.2-4.2
			c0.8,9.1-4.7,16.4-9.8,23.5c-4.8,6.6-9.3,13.4-10.8,21.5c-0.9,4.7,4,9.8,8.7,6.7c9.4-6,17.9-13.2,25.2-21.7
			c6.3-7.3,15.9-17.2,11.4-27.4c-1.5-3.3-7.1-4-9.3-1.2c-3.9,5-5.4,10.5-4.7,16.9c0.7,6.9,3.9,13.3,3.5,20.3
			c3.4-1.4,6.8-2.8,10.2-4.2c-6.2-5.4-12.7-10.4-19.5-15.2c-5.9-4.1-11.9-9.2-19.2-5.6c-4.3,2.1-3.4,8,0,10.3
			c6.9,4.6,13.9,9,21,13.1c6.3,3.6,13.2,8.8,20.8,6.7c4.9-1.3,5.9-8.4,1.4-10.9c-10.4-5.8-20.9-11.6-31.3-17.4
			c-5.1-2.8-10.2-5.7-15.2-8.5c-4.2-2.4-8.7-5.5-13.7-3.6c-4,1.5-6.2,6.6-2.6,9.9c10.6,10,20.4,20.8,29.1,32.5
			c2.8,3.8,7.5,3.8,10.3,0c7.7-10.3,10.3-23,8.3-35.7c-0.6-3.6-5.8-5.6-8.7-3.6c-11.4,8.2-22.9,16.4-33.2,25.9
			c-9.4,8.7-20,18.9-20.6,32.5c-0.2,3.8,3.9,6.8,7.5,5.7c18.6-5.6,34.4-17.7,44.6-34.2c-3.1,0.4-6.2,0.8-9.3,1.2
			c-1.2-1.1,1-1.5-1.5-0.4c-0.4,0.2-0.8,0.4-1.2,0.6c-0.9,0.3-0.8,0.4,0.2,0.4c0.9,1.2,1.8,2.4,2.7,3.6c-1.6-3.8,0.2-10.4,0.9-14.4
			c0.4-2.4,0.9-4.8,1.5-7.2c0.1-0.5,1.8-5.9,1-5.8c-1.5-0.2-3.1-0.4-4.6-0.6c0.3,0.2,0.5,0.4,0.8,0.6c-0.7-2.7-1.4-5.4-2.1-8.1
			c-2.5,3.9-6,6.1-10.5,6.9C283.6,207.3,286.7,218.8,294.2,217.3L294.2,217.3z"/>
	</g>
</g>
<g>
	<g>
		<path d="M602.3,421c-4.3,5.5-6.7,11.5-6.7,18.6c0,5.6,8.4,8.5,11.1,3c3.2-6.6,5.1-13.7,4.6-21.1c-0.3-5.5-1.1-14.8-7.9-15.9
			c-7.5-1.3-10.7,8.2-13,13.6c-2.8,6.5-5.7,13.5-6.1,20.6c-0.9,14.7,16.1,19.8,27.2,13.2c10.8-6.5,12.4-23.7,0.4-29.9
			c-6.1-3.2-13.8-2.1-18.4,3.2c-5.6,6.3-6.8,16.7-7.6,24.8c-0.5,5,7,8,10.2,4.2c8.1-9.5,16.2-19.6,18.3-32.3
			c1.2-7.4-9.2-10.6-11.5-3.2c-3.9,12.9-10.2,24.8-18.9,35.1c3.1,0.4,6.2,0.8,9.3,1.2c-2.3-5.3-4-10.9-5.3-16.6
			c-0.6-2.7-1.2-5.5-1.5-8.2c-0.1-1.1,0-2.2-0.1-3.2c-0.1-0.4-1.4-1.6-0.3-0.2c6.8,8.4,8.3,20.7,7.5,31.1c3.4-1.4,6.8-2.8,10.2-4.2
			c-4.9-5-9.4-10.3-13.4-16c-2-2.8-3.8-5.7-5.6-8.7c-1.4-2.3-4.8-6.6-4.6-9.3c-0.6,1.4-1.2,2.8-1.7,4.2c-1.4,0.2-1.6,0.4-0.5,0.4
			c0.8,0.1,1.6,0.2,2.3,0.4c1.4,0.2,2.7,0.6,4.1,0.9c3,0.8,6,1.9,8.8,3.2c-0.4-3.1-0.8-6.2-1.2-9.3c-3.8,3.3-11,2.9-15.7,3.6
			c-6.1,0.9-12.1,2.1-18,3.6c-5.7,1.4-11.3,3-16.8,4.8c-5.2,1.7-9.8,3.6-11.5,9.2c-0.7,2.3,0.4,5.7,2.7,6.7
			c14.8,6.7,31.7,0.5,45.7-5.4c14.3-6,29.3-14,38.7-26.8c-3.6-1.5-7.3-3.1-10.9-4.6c-2.5,16.7-7.8,32.7-16,47.6
			c3.6,1.5,7.3,3.1,10.9,4.6c1.7-8.2,3.5-16.4,5.2-24.7c1.5-7,4.6-15.5,1.9-22.4c-2.5-6.3-9.4-9.7-15.7-6.8
			c-5.8,2.7-11.1,8.2-15.4,12.8c-4.8,5.1-9.1,10.8-12.7,16.8c-3,5.1-8,12.4-4.3,18.2c3.8,6,11.7,4.2,17.3,2.4
			c6.7-2.1,12.8-5.4,18.3-9.8c5.1-4.1,10.3-9.9,7.3-16.9c-2.4-5.5-9.1-10-14.3-12.6c-5.2-2.6-12.9-6.1-18.2-1.8
			c-4.9,4-6.7,13.7-6.6,19.6c0.1,6.1,3.1,12.4,8.5,15.5c5.9,3.4,12.5,1.5,17.8-2.2c9.5-6.7,18.5-20.8,8.1-31.1
			c-13.5-13.5-27.1,12.3-30.1,22.9c-1.9,6.9,3.6,13.7,10.8,9.9c7-3.7,4.5-12.1-0.6-16.2c-5.9-4.8-14.4,3.6-8.4,8.4
			c0.5,0.4,1,0.8,1.4,1.2c1.9,2.1,4.2,1.2,7.1-2.5c0.2,1.5,0.4,3.1,0.6,4.6c0.6-4.4,2.9-8.6,5.2-12.3c1.2-2,2.5-3.9,3.9-5.7
			c0.7-0.8,1.4-1.6,2.1-2.4c-0.9,0-1,0.2-0.3,0.6c1.7,2.6,0.4,5.7-1.3,7.9c-1.6,2.1-6.7,7.3-9.8,6.7c-3-0.6-3.3-5-3.2-7.2
			c0.2-2.4,1.8-4.8,1.9-7.2c1.1-2,0.8-2.3-1-0.8c1,0.3,2,0.6,3,0.9c3.5,1.3,6.7,3.2,9.6,5.6c0.8,0.7,1.6,1.4,2.3,2.2
			c0.9,0.8,0.8,0.9-0.1,0.5c-0.5,1.5-3.8,3.4-5,4.3c-3.5,2.5-7.4,4.6-11.5,5.9c-1.4,0.5-3.5,0.6-4.7,1.3c-2.6,0-2.5,1.2,0.3,3.6
			c0.4-0.9,0.8-1.9,1.3-2.8c3.7-7.4,8.4-14.1,14.1-20c1.5-1.6,3.1-3.1,4.7-4.5c1.3-1.1,3.5-3.8,5.1-4.2c0.7-1.1,1.2-1.3,1.3-0.6
			c0.2,1.2,0.2,2.4-0.1,3.6c-0.2,1.8-0.8,3.7-1.1,5.5c-2.1,10.1-4.3,20.2-6.4,30.3c-1.3,6.3,7.5,10.8,10.9,4.6
			c8.7-15.7,14.5-32.7,17.2-50.4c1-6.7-6.8-10.2-10.9-4.6c-7.3,9.9-20.4,16.3-31.4,21.2c-5.9,2.6-12.1,4.7-18.4,6.4
			c-5.9,1.5-12.6,2.9-18.4,0.3c0.9,2.2,1.8,4.5,2.7,6.7c-0.4,1.2,0.3,0.2,1.5-0.3c1.1-0.4,2.3-0.8,3.5-1.2c2.6-0.8,5.3-1.6,7.9-2.4
			c5.6-1.6,11.3-2.9,17-4c9.8-1.9,21.1-1.3,29.1-8.1c2.8-2.3,2.1-7.8-1.2-9.3c-6.4-3-13.5-5.7-20.7-6.1c-7.6-0.4-12.3,5.5-9.2,12.8
			c5.9,13.7,15.7,26.3,26.1,36.9c3.8,3.9,9.8,0.7,10.2-4.2c0.7-9.7-0.7-19.4-4.3-28.4c-2.8-6.9-7.8-15.9-16.6-15
			c-19.8,1.9-5.7,36.9-1.6,46.5c1.4,3.4,7.1,3.9,9.3,1.2c10-12,17.4-25.5,21.9-40.4c-3.8-1.1-7.7-2.1-11.5-3.2
			c-1.8,10.7-8.5,19-15.3,27c3.4,1.4,6.8,2.8,10.2,4.2c0.4-3.9,1.5-17.6,6.8-17.9c6.4-0.4,3.7,8.4-0.2,10.1c-1.8,0.8-6.6,1.5-8-0.6
			c-1.3-2,0.3-6,0.9-7.9c0.9-3.2,2-6.4,3.3-9.5c1.2-2.8,2.7-7.7,5.1-9.6c-1.4,0.6-2.8,1.2-4.2,1.7c0.4,0,0.7,0,1.1,0
			c-1.4-0.6-2.8-1.2-4.2-1.7c-0.5-1.4-0.5-1.2,0.1,0.7c0.3,1.1,0.5,2.3,0.7,3.4c0.2,1.7,0.2,3.4,0.2,5.1c-0.2,4.1-1.3,8-3,11.7
			c3.7,1,7.4,2,11.1,3c0-3.7,0.9-7.2,3.3-10.2C615.4,423.4,607,414.9,602.3,421L602.3,421z"/>
	</g>
</g>
<g>
	<g>
		<path d="M361.9,425.5c-1.5-1-2.2-3.7-3.9-5c-2-1.5-4.4-2.2-6.9-2.1c-5.5,0.2-9.4,4-12.4,8.3c-6.6,9.4-10.6,20.8-12.2,32.1
			c-0.9,6.7,6.7,10.2,10.9,4.6c4.3-5.8,6.4-14.8,2.7-21.5c-3.5-6.4-12.3-8.8-18-3.8c-4.5,3.9-5.2,11-2.3,16
			c3.4,5.8,10.6,7.5,16.5,4.8c6.3-2.9,9.6-9.5,8.5-16.3c-1.3-7.5-7.1-12.8-14-15.6c-6.9-2.8-16.2-4.4-20,3.7c-2.8,5.9-0.3,13,4.5,17
			c12.2,10.5,29.3,1.8,38.6-8.4c5.7-6.3,2-13.1-4-17.3c-5.8-4.1-13.7-5.6-19.8-1.5c-6.3,4.2-9.8,13.3-11.8,20.3
			c-1.8,6.6-3.7,15.8,0,22c9,15.1,28.8-5.4,33.5-14.3c3.8-7.2,4.8-15.5,1.8-23.2c-2.6-6.6-9-16.9-16.6-18.4
			c-9.3-1.8-12.6,8.8-14.5,15.7c-2.7,9.5-2.8,19.2-1.3,28.9c0.6,3.6,5.8,5.7,8.7,3.6c15.9-11.4,6.4-32-8-39.6
			c-3.6-1.9-8-2.4-11.2,0.5c-3.1,2.8-3,8-2.6,11.8c0.9,8.9,5.5,16.9,12.9,21.9c6.7,4.5,16.4,6.5,24.1,3.7
			c8.7-3.1,10.5-12.8,4.8-19.7c-12.1-14.7-35.1-5.9-42.9,8.4c-3.8,6.9-6.5,16.5-2,23.6c4.8,7.6,14.9,7.8,22.5,5
			c14.4-5.4,38.2-19.7,23-37.1c-5.7-6.5-14.2-12.7-23-13.5c-7.4-0.6-15.4,3.3-18.3,10.3c-3.6,8.6,2,17.4,9.2,21.9
			c7.1,4.5,16.5,5,23.8,0.7c7.8-4.7,12.2-14.4,8.6-23.1c-3.1-7.6-16.4-13.2-19.1-2c-2,8.1,1.9,20.7,9.4,24.8c9.1,5,17-2.8,21.2-10.3
			c1.9-3.5,0.1-7.5-3.6-8.7c-11.5-3.9-23.5,6.9-20.3,18.8c3.4,12.8,19.5,16.3,28.5,7c4.1-4.3,5.7-10.6,4.3-16.3
			c-1.2-5-5.2-11.5-10.9-12.1c-6.1-0.6-11.6,6.5-15.1,10.6c-4.6,5.3-8.5,11.1-11.6,17.3c-3,6,4.2,11.9,9.3,7.2
			c6.1-5.5,11.5-11.7,16.4-18.4c3.8-5.3,9.5-12.7,4.9-19.2c-2.3-3.2-6.3-4-9.3-1.2c-6.7,6.1-5.2,18.8,4,21.7
			c11.9,3.8,15.5-12.2,14.4-20.8c-0.6-4.6-2.3-10.1-5.7-13.5c-1.8-1.8-4.1-1.5-5.8-2.7c0,0-1.3-3-1.8-4c-1.9-4.2-5.7-9-10.9-7
			c-4.7,1.8-6,8.6-7.7,12.9c3.8,1.1,7.7,2.1,11.5,3.2c1.2-3.5,2.9-6.6,5.3-9.5c-3.4-1.4-6.8-2.8-10.2-4.2c-0.5,4.6-0.9,9.2-1.4,13.8
			c-0.6,6.2,8.2,7.6,11.1,3c1.5-2.4,2.5-4.8,3.1-7.5c1.7-7.5-9.7-10.6-11.5-3.2c-0.4,1.8-0.9,3.1-1.9,4.7c3.7,1,7.4,2,11.1,3
			c0.5-4.6,0.9-9.2,1.4-13.8c0.5-5-7-8.1-10.2-4.2c-3.7,4.5-6.4,9.2-8.3,14.7c-2.5,7.4,8.7,10.1,11.5,3.2c0.5-1.3,1.1-2.6,1.6-3.9
			c0.5-1.3,2-2.7,0-1.5c-2,0-4,0-6,0c1.7,0.9,2.8,5.8,4,7.5c1,1.4,2.2,2.6,3.8,3.4c0.4,0.2,5.4,2.3,2.8,0.2c2.7,2.2,3,8.2,2.5,11.3
			c-0.2,1.1-3,7.5,1.2,3.5c0.2-0.2,0.1-1.4,0.7-1.9c-3.1-0.4-6.2-0.8-9.3-1.2c-0.1-0.1-2.3,3.5-3,4.4c-1.6,2.4-3.4,4.8-5.2,7
			c-3.5,4.2-7.2,8.1-11.3,11.7c3.1,2.4,6.2,4.8,9.3,7.2c2.7-5.3,5.8-10.4,9.8-14.9c1.5-1.7,5.5-4.4,6.2-6.3c1.2-0.8,0.7-1.1-1.6-0.7
			c0.2,0.3,0.4,0.6,0.6,1c0,1.1,0.9,2.2,0.9,3.4c0,4.4-5.8,7.9-8.9,4c-3-3.7,0.7-7.5,4.7-6.2c-1.2-2.9-2.4-5.8-3.6-8.7
			c-0.8,1.4-2.8,6-4.8,5.9c-2.2-0.1-3.1-5.1-3.4-6.8c-0.1-0.6-0.1-2.6-0.4-3.2c-0.8-1.6,1.7-2.9-2-0.1c-2.8,2.2-1.3,1.3-1.1,4
			c0.2,3.1-2,5.7-4.6,7c-4.7,2.4-15.9-0.2-15.6-7c0.3-7.6,12.1-2.4,14.9-0.3c2.6,1.8,5.8,4.2,7.5,6.9c2,3.1,0.1,5.3-2.3,7.6
			c-4.8,4.6-13.6,9.4-20.3,10.3c-8.4,1.1-4.8-8.7-2.3-13c3.4-5.8,9.6-10,16.5-9.2c1.6,0.2,3.4,0.7,4.8,1.5c0.6,0.4,1.1,0.7,1.6,1.2
			c1,1,0.9,0.8,0.6,1.1c-1.7,1.9-8.2,0.1-10.1-0.6c-3.7-1.4-6.8-3.9-8.8-7.3c-1.4-2.3-4-8.4-2.3-11.1c-1.2,0.9-2.4,1.8-3.6,2.7
			c-0.2-0.1-0.4-0.1-0.6-0.2c0.7,0.4,1.3,0.8,2,1.2c0.9,0.6,1.7,1.1,2.5,1.8c2,1.6,3.8,3.5,4.9,5.8c1.5,3.1,1.8,8-1.4,10.3
			c2.9,1.2,5.8,2.4,8.7,3.6c-1.5-9.2-0.5-18.8,2.9-27.5c0.3-1,0.8-1.9,1.2-2.8c-2,0.5-2.2,1.3-0.6,2.2c0.7,1.6,3,3.3,4,4.9
			c2.2,3.4,3.8,7.3,3.3,11.4c-0.9,7.2-6.9,13.6-12.5,17.6c-0.8,0.6-1.7,1.1-2.6,1.6c0,1.1-0.1,1-0.2-0.3c-0.7-1.5,0.2-4.9,0.4-6.5
			c0.7-4.5,2.1-9,4.2-13c2-3.8,3.8-7.5,8.5-5.3c0.9,0.4,1.7,1,2.5,1.5c1.1,1.5,1.5,1.3,1.2-0.8c-1.5,1.5-3.2,2.8-4.8,4.1
			c-5,3.7-12.9,8.3-18,2.3c-1.4-1.6-0.8-1.6,0.9-0.8c2,0.9,4.1,1.1,6,2.4c2.2,1.4,6.1,5.6,3.1,8.2c-2.4,2.1-2.4-0.7-2.1-0.8
			c-0.8,0.2,0,3.9-0.1,4.8c-0.3,2.2-1.5,4-2.8,5.8c3.6,1.5,7.3,3.1,10.9,4.6c1.1-7.7,3.2-15.1,6.7-22c1-2,3.3-7.7,5.6-8.8
			c2-0.9,0.4-0.4,1.7,0.8c1.4,1.3,2.3,2.7,3.9,3.8C362.1,440.2,368.1,429.9,361.9,425.5L361.9,425.5z"/>
	</g>
</g>
<g>
	<g>
		<path d="M46.2,442.3c-2.8-0.2-6.7-1.3-9.4-0.8c-2-0.3-1.3,0.4,2.2,2c0.1-0.5,0.2-1.1,0.4-1.6c0.7-1.4,0.9-3.4,1.4-4.9
			c1.9-6,4.9-11.4,8.6-16.6c-3.4,0-6.9,0-10.3,0c2.1,4.7,2.9,9.8,2.5,14.9c-0.2,2.8-0.8,5.6-1.8,8.2c-0.2,0.6-0.8,2.5-1.3,2.8
			c0.8,0.1,0.9-0.1,0.2-0.5c-0.6-0.5-1.1-1.1-1.7-1.6c-5.7-5.7-15.8-17.5-6.4-24.6c1.6-1.2,3.5-1.7,5.1-2.8
			c-0.4,0.2-0.9-2.1,0.1,0.6c0.5,1.3,1,2.5,1.3,3.9c1.3,5.1,0.8,10.6-0.4,15.6c-2,8.6-5.7,18.2-13.1,23.6c-0.9,0.6-2,1.5-3.1,1.8
			c-0.6,0.2,0.3,1.4-0.8-1c-0.9-2-2.7-3.8-3.9-5.8c-3-5.3-3.9-10.3-0.2-15.4c2.8-3.9,6.9-7.2,10.9-9.8c3.4-2.2,10.1-6.6,14.4-5.5
			c3.8,1,3.5,8.8,3.4,11.9c-0.2,5.3-1.8,10.6-4.6,15.2c-0.9,1.5-2.4,4.5-4.3,4.9c-2,0.5-2.7-1.5-3-3.5c-0.6-4.5,2.3-8.8,5.5-11.7
			c2.2-2,4.9-3.5,7.5-4.9c1-0.5,1.9-1,2.9-1.5c-0.3,0.1,4.5-2.1,3.2-2.5c1.3,0.5,1.9,5.6,1.9,6.7c0.2,2.7-0.1,5.3-0.9,7.8
			c-0.5,1.5-2.1,6.2-3.9,6.8c-0.8,0.3,3.2,2-1-0.4c-1.1-0.6-2.4-2.6-3-3.7c-3.3-5-4.3-10.7-3.6-16.5c0.7-6.9-9.8-7.8-11.7-1.6
			c-2.8,9.2-5.5,18.4-8.3,27.7c-1.4,4.8,4.4,9.6,8.7,6.7c13.8-9.3,8.8-25.8,0.1-36.6c-3.1-3.8-8.5-1.1-9.9,2.6
			c-3,8.1-4.3,18.3-1.4,26.7c3.3,9.3,12.6,9.7,20.2,5.4c6.6-3.8,13.6-9.1,16-16.6c2.4-7.5,0-15-6.2-19.6c-2.9-2.1-8.2,0-8.7,3.6
			c-0.9,5.6-1.6,11.2-1.9,16.8c-0.2,4.8-0.8,10.3,0.7,14.9c1.3,3.9,4.6,7.2,8.9,7.2c4.6,0,8.9-3.6,11.8-6.8c5.7-6.3,9-15,8.3-23.5
			c-0.4-4.9-2.2-9.2-3.5-13.9c-0.9-3.3-1.9-8,1.7-9.9c-2.7-2.7-5.4-5.4-8.1-8.1c-5.7,11.7-12.9,22.5-21.6,32.1
			c2.8,2.8,5.6,5.6,8.4,8.4c11.4-14.3,11.8-32.2,11.1-49.7c-0.3-7.6-12.1-7.7-11.9,0c0.2,6.8,0.7,14.3,4.6,20.2
			c4.2,6.4,10.9,9,16.9,3.3c10.9-10.2,8.5-28.8-4.3-36.2c-6.9-4-14.6-3.3-20.6,1.9c-5.3,4.6-10.2,11.8-10.8,19
			c-0.6,6.8,2.9,13.3,9.1,16.3c6.2,3,14.6,1.8,18.2-4.6c3.9-7-1.8-16-9.9-14.6c-4.2,0.7-7.3,3.7-10.3,6.4
			c-3.9,3.6-7.8,7.1-11.7,10.7c2.8,2.8,5.6,5.6,8.4,8.4c5-6.1,10.1-12.2,15.1-18.3c-3.1-2.4-6.2-4.8-9.3-7.2
			c-3.8,6.3-7.3,12.8-10.6,19.4c-1.6,3.3-3.2,6.6-4.6,10c-1.3,3.1-3.2,6.3-2.6,9.7c1,5.7,8.5,9.7,13.1,12.3
			c6.1,3.4,12.7,5.7,19.5,6.9c-0.9-3.3-1.8-6.6-2.6-9.9c-2.5,2.5-5.1,4.9-7.6,7.4c-0.4,0.4-3.5,3.1-3.5,3.3c1.1,0.1,2.1,0.3,3.2,0.4
			c-0.5-0.6-0.8-1.3-1.1-2c-1.7-3.6-6.8-3.7-9.3-1.2c-6,5.7-13.4,8.6-21.6,8.6c2,2,4,4,6,6c0.5-4.7,2.5-8.7,5.2-12.4
			c4.5-6.2-5.8-12.1-10.3-6c-4,5.6-6.1,11.7-6.8,18.5c-0.4,3.2,3,6,6,6c11.3-0.1,21.8-4.3,30-12.1c-3.1-0.4-6.2-0.8-9.3-1.2
			c2.3,4.8,7,8.7,12.6,6.7c2.7-1,4.8-3.4,6.8-5.3c2.8-2.7,5.6-5.4,8.3-8c3-2.9,1.9-9.2-2.6-9.9c-5-0.9-9.9-2.2-14.4-4.5
			c-2.2-1.1-4.4-2.4-6.5-3.8c-0.8-0.6-1.9-1.8-2.8-2.1c-0.8-0.7-0.8-0.7-0.3,0.1c0.5,1.1,0.8,0.8,1.1-1.1c2.7-4.3,4.4-9.6,6.7-14.1
			c2.7-5.2,5.5-10.3,8.5-15.2c3.4-5.6-5-12.5-9.3-7.2c-5,6.1-10.1,12.2-15.1,18.3c-4.8,5.8,2.7,13.7,8.4,8.4
			c3.7-3.4,7.3-6.7,11-10.1c0.6-0.5,3.5-2.6,3.8-3.4c1.5-3.9-3.2-2.9-4.6-3.8c-6.1-3.6,2.1-14.7,6.2-16.6c7.4-3.4,11.9,8.3,10,13.7
			c-0.4,1-0.8,1.8-1.4,2.7c-1.5,1.1-1.3,1.6,0.6,1.3c-0.7-1.1-1.3-2.1-1.8-3.4c-1.3-3.6-1.3-7.5-1.4-11.2c-4,0-7.9,0-11.9,0
			c0.6,13.7,1.5,29.9-7.6,41.3c-4.7,5.8,3.2,14.2,8.4,8.4c9.4-10.4,17.3-21.9,23.5-34.5c2.6-5.3-2.7-11-8.1-8.1
			c-5.6,3-8.4,9-8.4,15.3c-0.1,7.3,4.4,13.6,4.5,20.8c0,3.1-0.8,6.3-2.2,9.1c-0.6,1.1-6.2,7.3-6.3,7c1.8,1.2,2.6,1.2,2.3,0
			c-0.1-0.8-0.1-1.6-0.1-2.4c0-2.5,0-5.1,0.2-7.7c0.2-4.6,0.7-9.1,1.5-13.6c-2.9,1.2-5.8,2.4-8.7,3.6c2.4,1.7,1.1,5.8-0.1,7.7
			c-1.9,3.1-5.3,5.2-8.3,7.1c-0.6,0.4-3.6,2.5-4.1,2.3c-1-0.5-1-5.1-1-6c-0.3-4.9,0.7-9.5,2.5-14.1c-3.3,0.9-6.6,1.8-9.9,2.6
			c3.5,4.3,8.9,13.5,2.3,17.9c2.9,2.2,5.8,4.5,8.7,6.7c2.8-9.2,5.5-18.4,8.3-27.7c-3.9-0.5-7.8-1.1-11.7-1.6c-1,9.5,1.9,19,8,26.3
			c6.2,7.5,14.9,9,21.4,1c5.5-6.8,7.8-15.8,6.5-24.4c-1.5-9.7-7.5-17.9-18.2-13.6c-8.4,3.5-17.2,8.4-22.3,16.1
			c-4.5,6.9-5.7,16.6-1,23.7c5.8,8.7,16.3,7.5,22.8,0.3c6-6.6,9.1-15.9,9.8-24.7c0.6-8.5-0.7-20.2-9.4-24.1
			c-8.3-3.8-18.4,1-25.5,5.4c-7.6,4.6-15.6,11.5-18.8,20c-3.7,10,1.1,19.7,6.9,27.7c2.6,3.5,5.2,7,10,7.2c4.4,0.1,8.5-2.4,11.9-5
			c6.9-5.3,11.2-13,14.3-21c3.4-9.1,5.1-19.2,3.2-28.8c-1.7-8.7-7.1-18.2-17.2-14c-9.2,3.8-16.7,10.5-16.8,21.1
			c-0.1,10.9,7.2,19.9,14.7,27c3.5,3.3,7.9,5.9,12.8,4.1c4.8-1.7,7.1-6.7,8.7-11.2c3.8-10.7,2.7-22.1-1.9-32.3c-2-4.5-8-3.2-10.3,0
			c-5.8,8.1-10.2,17.7-11.8,27.6c-2,12.2,10.5,11.5,19.1,12.2C53.8,454.8,53.8,442.9,46.2,442.3L46.2,442.3z"/>
	</g>
</g>
<g>
	<g>
		<path d="M40.3,208.8c-0.9,4.8-1.7,9.7-2.6,14.5c-0.8,4.3-2.5,9.4-1.3,13.7c2.6,8.8,13.2,7.1,19.4,3.6c6.6-3.7,12.7-11.2,13-19.1
			c0.3-7.8-8.6-14.7-15.3-8.9c-5.6,4.8-5.6,17.6-3.8,24.2c2.3,8.6,10.6,11,17.5,5.7c6.7-5.2,11.5-12.5,8.5-21.2
			c-2.7-7.7-10-14.3-17.6-17.1c-19.6-7.1-29.1,19.7-21.3,34.1c4.1,7.5,12.2,11.1,20.4,9.2c8.4-1.9,16.3-7.4,16.3-16.8
			c0-8.1-6.6-16.7-13.4-20.6c-9.8-5.6-13.5,6.5-15.2,13.5c-1.8,7.3-3.9,17.3,1.4,23.7c5.4,6.5,14.8,5.1,21.7,2.2
			c7-2.9,16.3-9.4,16.8-17.8c0.5-7.4-7.2-15-13.4-18c-8.1-3.9-15.6,0-19.2,7.8c-3.6,7.8-7,18.8-5.2,27.5c2,9.4,10.8,10.3,18.5,7.7
			c4-1.4,7.9-3,11.6-4.9c3.8-1.9,8.3-3.8,9.8-8c2.8-7.4-4.1-15.6-10.2-18.9c-8.1-4.3-18-3.8-26.7-1.8c-13.5,3.2-38.2,16.6-29,34.2
			c8.3,15.9,31.3,4.8,41.3-2.8c6.4-4.9,13.3-11.5,12.1-20.4c-1-7.5-8.2-16.3-15.4-18.7c-16.3-5.3-27.5,17.1-24.2,30.6
			c3.8,15.6,30.3,12.4,34.6-1.3C75,228,49.9,214.2,36,216.5c-7.7,1.3-14.4,6.7-16,14.5c-1.7,8.3,2.8,15.9,10.7,18.7
			c8.6,3,19.4,1.3,28-0.8c8.1-1.9,17-5,22.9-11.2c5.9-6.2,7.4-14.5,4-22.2c-1.3-2.8-5.7-3.8-8.1-2.1c-10.3,6.9-18.5,23.1-12,35.2
			c4.4,8.1,12.5,2.3,16.2-2.9c4.1-5.6,6.4-12.9,6-19.9c-0.5-7.8-5.1-12.5-13.1-11.3c-7.8,1.2-15.8,3.8-22.7,7.6
			c-5.8,3.2-11.5,8.5-12.1,15.5c-0.5,6.8,4.6,13.1,11.9,11.6c7.6-1.6,14-9.8,16.6-16.7c2.9-7.7,1.4-16.1-4.2-22.2
			c-3.3-3.6-10.6-1-10.2,4.2C55,224.9,58.2,241,68,246.9c11.5,6.9,22.5-8,24.7-17.8c1.8-7.6-8.7-10.1-11.5-3.2
			c-2.8,7.1-6.4,22.9,2.7,27c10.2,4.7,16-10.8,18.8-17.7c2.9-7.1-8.6-10.2-11.5-3.2c-0.9,2.2-2,4.4-3.1,6.5c-0.6,1-1.1,2-1.8,3
			c3.4,3.3,4.7,3.5,4,0.7c0.6-1.9,0-4.7,0.4-6.8c0.4-2.2,1.2-4.3,2-6.4c-3.8-1.1-7.7-2.1-11.5-3.2c-0.7,3-1.8,5.8-4,8.1
			c-0.4,0.4-2.5,2.7-3.3,2.6c-0.7-0.1-1.8-2.2-2.1-2.7c-3.5-5.8-5.4-12.7-6-19.4c-3.4,1.4-6.8,2.8-10.2,4.2c4.2,4.5,1.7,10.9-1.9,15
			c-0.4,0.5-3.2,2.5-3.3,3.2c0.8,2.2,1.2,2.6,1.2,1.2c0.2-0.3,0.3-0.6,0.5-1c2.7-2.2,4.4-4.1,7.7-5.7c3.1-1.5,6.4-2.6,9.7-3.6
			c1.6-0.5,3.3-0.9,5-1.2c0.8-0.2,1.7-0.3,2.5-0.5c-1.3-1.8-1.8-2-1.5-0.8c-0.4,0.9,0.1,3.2,0,4.3c-0.2,1.5-0.5,2.9-1,4.3
			c-0.5,1.4-2.8,6.9-4.6,7.2c1.5,0.2,3.1,0.4,4.6,0.6c1.7,1.3,0.7-2.1,0.7-3.4c0.1-2,0.5-4,1.1-5.9c1.3-3.6,3.7-6.6,6.9-8.7
			c-2.7-0.7-5.4-1.4-8.1-2.1c3.4,7.8-9.2,12.7-14.3,14.4c-4.2,1.4-8.6,2.4-13.1,2.9c-4,0.4-9.5,1.2-13.3-0.3
			c-2.9-1.2-3.9-3.8-2.4-6.6c1.7-3.3,6.2-4.2,9.6-3.7c3.9,0.5,19.4,7.8,16.3,13.5c-1.1,2.1-5.7,2.6-7.8,2.8
			c-3.6,0.3-4.1-0.5-3.9-4.1c0.4-4.7,4.5-17.7,11.1-12c2.4,2.1,6.3,5.9,5.1,9.4c-1.1,3.3-5.4,6.2-8.1,8.2c-5,3.6-13.9,9.3-20.4,7.5
			c-9-2.4,5-12.7,7.9-14.3c7-3.9,16.1-6.5,24.2-5.2c2.1,0.3,4.2,1,6,2.2c1.3,0.9,2.2,3.1,3.3,3.8c1.7,1-0.5-0.8,1-1.1
			c-0.7,0.1-2.2,1.3-3,1.7c-2,1.1-4,2.1-6.1,3c-1.4,0.6-8.3,3.5-8.7,3.2c-0.7-0.6,0.3-5.8,0.4-6.3c0.4-2.4,0.9-4.8,1.6-7.2
			c0.6-2.1,2.1-9.1,4.9-8.9c2.5,0.2,7.5,5.5,6.9,7.7c-0.9,3.9-15.2,11.5-17.4,7.1c-1.3-2.5,0.3-7.9,0.9-10.3c0.4-2,1-4.1,1.6-6.1
			c0.4-1.4,2.2-3.7-0.7-1.8c-2.2,1.5-0.8,1.3,0.9,3.1c2.2,2.3,5.4,6.2,2.9,9.3c-2.1,2.6-8.1,3.9-10.9,2.2
			c-6.5-3.9-4.8-23.1,4.4-19.9c3.9,1.4,8.3,5.1,9.9,9c0.8,2,0.7,3.5-0.6,5.2c-0.4,0.6-4.3,3.4-4.2,3.9c0.3,0.1,0.7,0.3,1,0.4
			c1.1,0.7,1.3,0.6,0.8-0.3c0.2-0.4-0.2-2-0.3-2.5c-0.1-2.1,1.1-6.6,0.6-8.4c0.1-0.3,0.1-0.6,0.2-0.9c-1.6-0.2-3.1-0.3-4.7-0.5
			c-0.2,0.1-1,2.7-1.3,3.2c-1,1.8-2.4,3.4-4,4.6c-0.7,0.6-4.8,2-5,2.4c0.2,0.3,0.4,0.7,0.6,1c0.7,1.6,1,1.4,0.9-0.8
			c0.4-1.1,0.4-2.5,0.7-3.6c1-5.4,2-10.9,2.9-16.3C53.1,204.5,41.6,201.2,40.3,208.8L40.3,208.8z"/>
	</g>
</g>
<g>
	<g>
		<path d="M43.8,207.3c2.1,0.4,4.1,0.6,6.2,0.4c1.8-0.2,4.2-1.1,6-0.9c3.8,0.4,4.6,8.1,5.2,11.3c2.4-2.4,4.9-4.9,7.3-7.3
			c-4.3-1.2-1.3-6.8,1.7-3.6c3.5,3.9,3.9,10.4,3.3,15.2c2-2,4-4,6-6c0.3,1.2,0.5,2.4,0.8,3.7c0.5-0.2,0.9-0.2,1.3,0.1
			c0.6,0.5,1.2,0.6,1.8,1.3c1.2,1.5,1.2,3.2,0.7,4.9c3.3-0.9,6.6-1.8,9.9-2.6c-2.5-2.6-3.4-5.7-2.6-9.2c1.7-7-6.9-9.7-10.9-4.6
			c-3.4,4.5-16.3-12.6-17.8-14.8c-2.2-3.2-6.4-4-9.3-1.2c-2.6,2.4-3,5-2.4,8.4c1.2,7.5,12.7,4.3,11.5-3.2c-0.2,1.1-0.4,2.1-0.6,3.2
			c-3.1-0.4-6.2-0.8-9.3-1.2c7.6,11.2,25.6,31.4,38.3,14.8c-3.6-1.5-7.3-3.1-10.9-4.6c-1.9,7.7,0.1,15.1,5.6,20.8
			c3.2,3.3,8.7,1.6,9.9-2.6c3.1-10.4-4.8-22.7-16.3-21.3c-5.2,0.6-10,4.8-9.9,10.4c0.2,5.3,4.7,10.3,10.2,9.7c3.5-0.4,5.5-2.4,6-6
			c1.4-12-5.8-33.3-21.6-27.4c-13.4,4.9-11.6,23.5,1.6,27.3c4.6,1.3,8.2-3,7.3-7.3c-1.2-6.1-3.3-14.6-8.9-18.2c-2.3-1.5-5-2-7.8-1.9
			c-2.9,0.1-6.1,1.6-9,0.9C39.5,194.2,36.3,205.7,43.8,207.3L43.8,207.3z"/>
	</g>
</g>
<g>
	<g>
		<path d="M566.1,9c-12-5.4-28-8.3-33.9,6.7c-0.9,2.3,0.6,5.7,2.7,6.7c7.8,3.8,28,9.7,30.3-4c1.2-7.5-10.3-10.7-11.5-3.2
			c0.1-0.8,0.9,0-0.8-0.1c-1.4-0.1-2.6-0.1-4-0.3c-2.8-0.5-5.5-1.4-8-2.6c0.9,2.2,1.8,4.5,2.7,6.7c2.4-6.1,12.9-1.2,16.5,0.4
			C567.1,22.4,573.1,12.1,566.1,9L566.1,9z"/>
	</g>
</g>
</svg>
